<?xml version="1.0" encoding="utf-8"?>
<!-- Uploaded to: SVG Repo, www.svgrepo.com, Generator: SVG Repo Mixer Tools -->
<svg fill="#2d4573" version="1.1" id="Layer_1" xmlns="http://www.w3.org/2000/svg" xmlns:xlink="http://www.w3.org/1999/xlink" 
	 width="800px" height="800px" viewBox="0 0 260 204" enable-background="new 0 0 260 204" xml:space="preserve">
<path d="M149.039,198.134l2.455,3.457l6.462-1.931l2.694-6.914l-8.178,0.19L149.039,198.134z M258,30.591l-6.986,4.935l-6.032,0.835
	l-6.247-9.06l-7.653-1.264L221.64,6.033l-8.822-3.624l-8.345,2.026l-2.098,7.725l-5.46,9.728l-5.889,6.867l-4.316-1.812
	l-4.554,10.419l1.383,2.48l10.872-1.788l4.864,4.697l-12.541,5.388l-3.934,5.174l-8.297,4.125l-6.748-2.051l-0.358,7.582
	l-10.562,7.511l-11.587,0.501l-13.138,2.312l-8.559-4.959l-18.645-3.29h-3.505l-3.1-9.466l-7.224-4.792l-10.73-2.861l1.884-7.964
	l-1.884-6.89L67.973,22.222l-5.102,3.41l-2.575,7.82l-9.251-2.694l-5.389,9.084l-9.68,1.073l0.691,11.397l-3.838,5.674L8.533,61.157
	L2,65.687l5.15,20.505l7.844,5.627l3.41,6.891l-2.48,16.237l6.867,7.391l3.004-0.262l13.948,14.162l17.954,6.915l6.127-3.124
	l7.749,4.554l7.582-4.101l13.066-2.193l3.267,5.96l5.316,1.55l2.242,8.393l-6.843,9.37l4.339,3.767l2.146,10.706l12.255,6.461
	l0.239-6.962l10.92,0.095l8.321-2.646l5.889,2.527l2.718,6.199l11.898,0.525l4.72,1.311l12.399-3.123l7.844-4.507l5.126,0.334
	l6.557-4.721l8.679-7.343l2.122-5.651l4.292-6.581l5.626-6.318l1.121-8.393l-3.505-4.148l0.095-4.316l-8.986-18.745l10.732-10.16
	l-3.225-2.239l-13.5,0.546l-3.451-7.932l1.955-3.385l7.868-4.578l5.508-5.532l13.042,5.46l6.461-6.247l4.817-5.746l5.96,0.74
	l11.397-12.017l-1.74-8.25l9.346-5.031L258,30.591z"/>
</svg>