<?xml version="1.0" encoding="utf-8"?>
<!-- Uploaded to: SVG Repo, www.svgrepo.com, Generator: SVG Repo Mixer Tools -->
<svg fill="#2d4573" version="1.1" id="Layer_1" xmlns="http://www.w3.org/2000/svg" xmlns:xlink="http://www.w3.org/1999/xlink" 
	 width="800px" height="800px" viewBox="0 0 260 217" enable-background="new 0 0 260 217" xml:space="preserve">
<path d="M103.994,24.438l4.52,9.233l6.706-3.952l-0.833,12.894l6.066,1.74l8.677-4.785l-2.441-5.486l-0.314-9.886l2.586-4.495
	l0.531-15.976l-8.314-1.329l-13.873,13.728L103.994,24.438z M129.057,46.65l-5.945-0.194l-6.429,3.795l-0.532,5.124l11.746-2.466
	L129.057,46.65z M107.716,71.278l-1.934-10.9l-4.495-0.121l-1.474,8.677l3.48,5.244L107.716,71.278z M121.662,58.082l-3.215,11.383
	l3.867,7.251l12.472,0.387l5.848-4.206l7.493,4.737l6.066,1.112l3.747,4.81l-1.523,11.577l11.94,6.646l9.063,0.822l1.547-6.066
	l4.93-1.837l-6.018-6.961l2.151-7.976l-0.991-5.849l-18.417-4.229l-4.35-6.139l-15.058-4.133l-4.957,1.861l-6.765-4.592
	L121.662,58.082z M133.553,106.323l6.864,1.402l1.788-4.665l-9.063-2.997L133.553,106.323z M85.819,64.559l-0.169,1.257
	l-0.025,0.241l-0.048,0.435l-0.072,0.556l-0.025,0.145l-0.024,0.218l-6.429-6.139l-4.858,1.523l-4.423,6.114l1.209,11.287
	l6.84,7.589l13.268-2.078l4.593,2.296l3.697-7.057l-4.35-3.505l-1.885-11.166L85.819,64.559z M66.943,68.861l4.036-5.269
	l7.033-3.069l-6.961-7.106l-5.559,1.498l-6.211,8.653l2.924,6.115L66.943,68.861z M87.1,54.408l6.864-3.843l-5.728-5.124
	l-0.194,1.426l-0.217,1.74l-0.024,0.194l-0.218,1.836l-4.785-5.969l-5.874,5.921l5.439,5.656L87.1,54.408z M250.266,135.375
	l-5.71,1.208l-4.088-6.812l-2.113,4.85l3.887,16.85L258,141.779L250.266,135.375z M222.711,163.153l2.516-5.087l-4.818-2.963
	l-7.186,10.919l3.815-13.012l15.633-10.046l5.51-15.928l-3.722-5.389l-10.127,0.845l-12.713-3.48l-3.577-3.625l-16.557-8.864
	l0.001-0.296l-0.193,0.193l0.192,0.187l-0.047,10.568l-3.674,2.079l-6.163-2.756l-3.408-7.299l-12.543-2.054l-8.846,3.094
	l1.667,9.111l3.892,3.384l-0.895,7.855l5.245,2.054l2.81,8.846l-5.19,9.982l6.93,10.514l-2.07,4.638l-8.643-3.816l-3.191-10.973
	l-7.057,1.329l-14.453-5.414l-9.499,0.725l-3.625-7.541l-4.882-2.03l-0.532-5.172l3.698-13.583l9.523-10.949l2.296-11.262
	l7.613-6.744l-6.405-13.051l-4.954,0.435l1.232,9.595l-10.465-3.601l-8.169-13.438l4.737-12.278l-7.662,0.459l1.257,11.07
	L109.19,81.84l5.148,1.813l-1.643,7.734l-14.888,2.344l-9.596-2.61l-10.827,1.087l-3.94-7.226l-9.547-6.139l-16.121-9.499
	l-12.713,0.798l-5.22-7.976L2,103.205l4.52,9.692l6.404,0.363l4.593,24.217l-5.003,8.218l1.305,18.465l10.924,16.943l45.076,10.296
	l30.477,1.837l23.589-0.339l12.23,2.562l6.574-0.894l4.423-6.357l12.084,2.804l3.167,7.13l14.791-0.918l-2.372,17.38l9.067-3.269
	l3.142-5.386l7.323-3.602l6.236-8.652l11.214-5.317l2.49-15.203l4.713-1.039l6.525,7.976l8.17-9.233l-2.031,9.305l6.357-2.127
	l7.565-11.117l-11.601,2.755L222.711,163.153z"/>
</svg>