<?xml version="1.0" encoding="utf-8"?>
<!-- Uploaded to: SVG Repo, www.svgrepo.com, Generator: SVG Repo Mixer Tools -->
<svg fill="#2d4573" version="1.1" id="Layer_1" xmlns="http://www.w3.org/2000/svg" xmlns:xlink="http://www.w3.org/1999/xlink" 
	 width="800px" height="800px" viewBox="0 0 192 260" enable-background="new 0 0 192 260" xml:space="preserve">
<polygon points="189.818,136.221 183.113,126.437 180.903,106.347 185.05,90.802 155.375,93.409 144.647,80.397 134.987,77.988 
	114.947,79.602 114.476,79.503 107.175,72.724 108.143,58.445 98.235,43.247 92.648,45.333 99.65,25.244 114.401,5.527 109.782,2 
	89.395,11.76 69.28,14.764 57.658,30.558 55.771,41.286 20.707,75.778 29.424,86.854 30.64,123.507 30.144,124.003 22.52,149.333 
	11.693,149.804 2.182,164.903 32.925,185.414 49.737,185.265 88.426,211.017 99.501,229.517 118.772,225.072 145.79,234.31 
	134.789,251.271 147.354,258 155.946,210.818 152.569,199.122 145.492,193.038 149.192,163.835 176.135,163.537 189.346,157.602 
	181.275,144.887 "/>
</svg>